<?xml version="1.0" encoding="utf-8"?>
<!-- Generator: Adobe Illustrator 25.0.0, SVG Export Plug-In . SVG Version: 6.00 Build 0)  -->
<svg version="1.1" id="layer" xmlns="http://www.w3.org/2000/svg" xmlns:xlink="http://www.w3.org/1999/xlink" x="0px" y="0px"
	 viewBox="0 0 600 103.4" style="enable-background:new 0 0 600 103.4;" xml:space="preserve">
<g>
	<g>
		<path d="M0,1.7h30.8v75.4h48.1v24.6H0V1.7z"/>
		<path d="M154.2,1.7h30.7v59.6c0,5.9-0.9,11.5-2.8,16.7c-1.8,5.2-4.7,9.8-8.6,13.8c-3.9,3.9-8,6.7-12.3,8.3
			c-6,2.2-13.2,3.3-21.6,3.3c-4.9,0-10.1-0.3-15.9-1c-5.7-0.7-10.5-2-14.4-4.1c-3.9-2-7.4-4.9-10.6-8.6s-5.4-7.6-6.6-11.5
			c-1.9-6.4-2.9-12-2.9-16.9V1.7h30.7v61c0,5.5,1.5,9.7,4.5,12.8s7.2,4.6,12.5,4.6s9.5-1.5,12.5-4.5s4.5-7.3,4.5-12.9
			C154.2,62.7,154.2,1.7,154.2,1.7z"/>
		<path d="M306,1.7h30.8v35h33.7v-35h30.9v100h-30.9V61.2h-33.7v40.5H306V1.7z"/>
		<path d="M200,66.8h29.3c0.6,4.8,1.9,8.4,3.9,10.9c3.2,4,7.7,6.1,13.6,6.1c4.4,0,7.8-1,10.2-3.1c2.4-2.1,3.6-4.5,3.6-7.2
			c0-2.6-1.1-4.9-3.4-7c-2.3-2-7.5-4-15.8-5.8c-13.5-3-23.1-7.1-28.9-12.1c-5.8-5-8.7-11.5-8.7-19.3c0-5.1,1.5-10,4.5-14.6
			s7.4-8.2,13.4-10.8c6-2.6,14.1-3.9,24.5-3.9c12.7,0,22.5,2.4,29.1,7.1c6.7,4.8,11,14,12.3,24.4h-29.4c-0.8-4.5-2.4-7.8-4.9-9.8
			s-5.9-3.1-10.2-3.1c-3.6,0-6.3,0.8-8.1,2.3c-1.8,1.5-2.7,3.4-2.7,5.6c0,1.6,0.7,3,2.2,4.3c1.4,1.3,4.9,2.5,10.3,3.7
			c13.5,2.9,23.1,5.9,28.9,8.8c5.8,3,10.1,6.7,12.7,11.1c2.7,4.4,4,9.3,4,14.8c0,6.4-1.8,12.3-5.3,17.7c-3.5,5.4-8.5,9.5-14.8,12.3
			s-14.3,4.2-24,4.2c-17,0-28.7-3.3-35.2-9.8C204.5,87.1,200.8,76.9,200,66.8z"/>
	</g>
	<g>
		<g>
			<path d="M433.9,69.6V48.7h4.2v8.2h8.2v-8.2h4.2v20.9h-4.2v-9.1h-8.2v9.1H433.9z"/>
			<path d="M473.7,69.6h-4.6l-1.8-4.7H459l-1.7,4.7h-4.5l8.1-20.9h4.4L473.7,69.6z M465.9,61.4l-2.9-7.8l-2.8,7.8H465.9z"/>
			<path d="M475.9,69.6V48.7h4.1l8.5,14v-14h3.9v20.9h-4.2L479.8,56v13.6H475.9z"/>
			<path d="M496.9,48.7h7.7c1.7,0,3.1,0.1,4,0.4c1.2,0.4,2.3,1,3.1,1.9c0.8,0.9,1.5,2,2,3.4c0.5,1.3,0.7,3,0.7,4.9
				c0,1.7-0.2,3.2-0.6,4.4c-0.5,1.5-1.3,2.8-2.2,3.7c-0.7,0.7-1.7,1.3-3,1.7c-0.9,0.3-2.2,0.4-3.7,0.4H497L496.9,48.7L496.9,48.7z
				 M501.1,52.3v13.8h3.1c1.2,0,2-0.1,2.5-0.2c0.7-0.2,1.2-0.5,1.7-0.9c0.4-0.4,0.8-1.1,1.1-2s0.4-2.2,0.4-3.8s-0.1-2.9-0.4-3.7
				c-0.3-0.9-0.7-1.5-1.2-2s-1.2-0.8-1.9-1c-0.6-0.1-1.7-0.2-3.5-0.2L501.1,52.3L501.1,52.3z"/>
			<path d="M517.9,69.6V48.7h6.3L528,63l3.7-14.3h6.3v20.9h-3.9V53.1L530,69.6h-4.1l-4.1-16.5v16.5H517.9z"/>
			<path d="M560.9,69.6h-4.5l-1.8-4.7h-8.3l-1.7,4.7h-4.5l8.1-20.9h4.4L560.9,69.6z M553.2,61.4l-2.9-7.8l-2.8,7.8H553.2z"/>
			<path d="M563.2,48.7h7.7c1.7,0,3.1,0.1,4,0.4c1.2,0.4,2.3,1,3.1,1.9c0.9,0.9,1.5,2,2,3.4c0.4,1.3,0.7,3,0.7,4.9
				c0,1.7-0.2,3.2-0.6,4.4c-0.5,1.5-1.3,2.8-2.2,3.7c-0.7,0.7-1.7,1.3-3,1.7c-0.9,0.3-2.2,0.4-3.7,0.4h-7.9L563.2,48.7L563.2,48.7z
				 M567.4,52.3v13.8h3.1c1.2,0,2-0.1,2.5-0.2c0.7-0.2,1.2-0.5,1.7-0.9s0.8-1.1,1.1-2s0.4-2.2,0.4-3.8s-0.1-2.9-0.4-3.7
				c-0.3-0.9-0.7-1.5-1.2-2s-1.2-0.8-1.9-1c-0.6-0.1-1.7-0.2-3.5-0.2L567.4,52.3L567.4,52.3z"/>
			<path d="M584.2,69.6V48.7h15.4v3.5h-11.2v4.6h10.5v3.5h-10.5V66H600v3.5L584.2,69.6L584.2,69.6z"/>
		</g>
		<g>
			<path d="M447,93.3l4,1.3c-0.6,2.2-1.6,3.9-3.1,5c-1.4,1.1-3.2,1.6-5.4,1.6c-2.7,0-4.9-0.9-6.7-2.8c-1.7-1.9-2.6-4.4-2.6-7.6
				c0-3.4,0.9-6,2.6-7.9c1.8-1.9,4.1-2.8,6.9-2.8c2.5,0,4.5,0.7,6.1,2.2c0.9,0.9,1.6,2.1,2.1,3.8l-4.1,1c-0.2-1.1-0.7-1.9-1.5-2.5
				s-1.7-0.9-2.8-0.9c-1.5,0-2.7,0.5-3.7,1.6c-0.9,1.1-1.4,2.8-1.4,5.3c0,2.6,0.5,4.4,1.4,5.5s2.1,1.6,3.6,1.6c1.1,0,2-0.3,2.8-1
				C446.1,95.9,446.7,94.8,447,93.3z"/>
			<path d="M453.7,90.8c0-2.1,0.3-3.8,0.9-5.2c0.5-1,1.1-2,1.9-2.8s1.7-1.4,2.6-1.8c1.3-0.5,2.7-0.8,4.4-0.8c3,0,5.4,0.9,7.2,2.8
				c1.8,1.9,2.7,4.5,2.7,7.8s-0.9,5.9-2.7,7.7c-1.8,1.9-4.2,2.8-7.2,2.8s-5.4-0.9-7.2-2.8C454.6,96.6,453.7,94,453.7,90.8z
				 M457.9,90.6c0,2.3,0.5,4.1,1.6,5.3c1.1,1.2,2.4,1.8,4.1,1.8s3-0.6,4-1.8c1.1-1.2,1.6-3,1.6-5.3s-0.5-4.1-1.5-5.2
				c-1-1.2-2.4-1.7-4.1-1.7s-3.1,0.6-4.1,1.7C458.4,86.5,457.9,88.3,457.9,90.6z"/>
			<path d="M495.5,100.9V80.4h6.2l3.7,14l3.7-13.9h6.2v20.4h-3.9V84.8l-4,16.1h-4l-4-16.1v16.1H495.5z"/>
			<path d="M519.3,100.9V80.4h15.1v3.5h-11v4.5h10.2v3.4h-10.2v5.6h11.4v3.4h-15.5V100.9z"/>
			<path d="M542.8,100.9v-17h-6v-3.5H553v3.5h-6v17H542.8z"/>
			<path d="M555.5,100.9V80.4h4.1v20.4h-4.1V100.9z"/>
			<path d="M576.5,93.3l4,1.3c-0.6,2.2-1.6,3.9-3,5s-3.2,1.6-5.4,1.6c-2.7,0-4.9-0.9-6.7-2.8c-1.7-1.9-2.6-4.4-2.6-7.6
				c0-3.4,0.9-6,2.6-7.9c1.7-1.9,4-2.8,6.9-2.8c2.5,0,4.5,0.7,6.1,2.2c0.9,0.9,1.6,2.1,2.1,3.8l-4.1,1c-0.2-1.1-0.7-1.9-1.5-2.5
				s-1.7-0.9-2.8-0.9c-1.5,0-2.7,0.5-3.7,1.6c-0.9,1.1-1.4,2.8-1.4,5.3c0,2.6,0.5,4.4,1.4,5.5s2.1,1.6,3.6,1.6c1.1,0,2-0.3,2.8-1
				C575.6,95.9,576.2,94.8,576.5,93.3z"/>
			<path d="M475.6,93.8h4c0.2,1.3,0.7,2.3,1.5,3c0.7,0.6,1.7,0.9,3,0.9s2.3-0.3,3-0.8c0.7-0.6,1-1.2,1-2c0-0.5-0.1-0.9-0.4-1.2
				c-0.3-0.3-0.8-0.6-1.5-0.9c-0.5-0.2-1.6-0.5-3.3-0.9c-2.2-0.5-3.7-1.2-4.6-2c-1.3-1.1-1.9-2.5-1.9-4.1c0-1,0.3-2,0.9-2.9
				s1.4-1.6,2.5-2.1s2.4-0.7,4-0.7c2.6,0,4.5,0.6,5.8,1.7s2,2.8,2.1,4.7h-4.3c-0.2-1-0.6-1.8-1.1-2.3c-0.6-0.5-1.4-0.7-2.6-0.7
				s-2.1,0.2-2.8,0.7c-0.4,0.3-0.7,0.7-0.7,1.3c0,0.5,0.2,0.9,0.6,1.2c0.5,0.4,1.8,0.9,3.8,1.4s3.5,1,4.4,1.5c1,0.5,1.7,1.2,2.3,2.1
				c0.5,0.9,0.8,2,0.8,3.3c0,1.2-0.3,2.3-1,3.3s-1.6,1.8-2.8,2.3c-1.2,0.5-2.7,0.7-4.4,0.7c-2.6,0-4.6-0.6-5.9-1.8
				C476.7,98.2,475.8,96.1,475.6,93.8z"/>
			<path d="M583,93.8h4c0.2,1.3,0.7,2.3,1.5,3c0.7,0.6,1.7,0.9,3,0.9s2.3-0.3,3-0.8c0.7-0.6,1-1.2,1-2c0-0.5-0.1-0.9-0.4-1.2
				c-0.3-0.3-0.8-0.6-1.5-0.9c-0.5-0.2-1.6-0.5-3.3-0.9c-2.2-0.5-3.7-1.2-4.6-2c-1.3-1.1-1.9-2.5-1.9-4.1c0-1,0.3-2,0.9-2.9
				c0.6-0.9,1.4-1.6,2.5-2.1s2.4-0.7,4-0.7c2.6,0,4.5,0.6,5.8,1.7s2,2.8,2.1,4.7H595c-0.2-1-0.6-1.8-1.1-2.3
				c-0.6-0.5-1.4-0.7-2.6-0.7c-1.2,0-2.1,0.2-2.8,0.7c-0.4,0.3-0.7,0.7-0.7,1.3c0,0.5,0.2,0.9,0.6,1.2c0.5,0.4,1.8,0.9,3.8,1.4
				s3.5,1,4.4,1.5c1,0.5,1.7,1.2,2.3,2.1c0.5,0.9,0.8,2,0.8,3.3c0,1.2-0.3,2.3-1,3.3s-1.6,1.8-2.8,2.3s-2.7,0.7-4.4,0.7
				c-2.6,0-4.6-0.6-5.9-1.8C584.1,98.2,583.2,96.1,583,93.8z"/>
		</g>
		<g>
			<path d="M494.7,32.4c0-0.4,0-0.9,0-1.3c-0.1-1-0.1-1.9-0.1-2.6c-0.2-3.3-1.1-6.7-4.1-8.1c0.9-0.5,1.6-1.1,2.3-1.8
				c1.6-1.8,2.4-4.1,2.4-6.8c0-2.2-0.5-4.1-1.6-5.8c-1.1-1.7-2.5-2.9-4.3-3.5c-1.8-0.7-4.6-1-8.5-1h-15.6v36.8h7.4V22.9h0.6h0.9h4.6
				h1.6h0.6l0,0c4,0,5.5,1.7,6.1,5.5c0.1,0.8,0.2,1.7,0.3,2.7c0,0.4,0,0.9,0,1.3c0.2,2.1,0.3,4.3,1,5.9h8
				C495.1,36.9,494.8,34.5,494.7,32.4z M478,17.1h-5.5V7.8h5.8c3,0,4.8,0,5.4,0.1c1.2,0.2,2.1,0.7,2.8,1.4c0.7,0.8,1,1.8,1,3
				c0,1.1-0.3,2-0.8,2.8c-0.5,0.7-1.2,1.3-2.1,1.6C483.8,16.9,481.5,17.1,478,17.1z"/>
			<path d="M433.9,38.3V1.5H459v6.2h-17.7v8.7h15.3v6.2h-15.3v15.6C441.3,38.3,433.9,38.3,433.9,38.3z"/>
			<path d="M502,38.3V1.5h27.2v6.2h-19.8v8.2h18.4v6.2h-18.4v10h20.5v6.2C529.9,38.3,502,38.3,502,38.3z"/>
			<path d="M534.3,25.6h7.2c0.4,2.4,1.3,4.2,2.6,5.3c1.3,1.1,3.1,1.7,5.4,1.7c2.4,0,4.2-0.5,5.4-1.5s1.8-2.2,1.8-3.5
				c0-0.9-0.3-1.6-0.8-2.2s-1.4-1.1-2.7-1.6c-0.9-0.3-2.8-0.8-5.9-1.6c-4-1-6.7-2.2-8.3-3.6c-2.2-2-3.4-4.5-3.4-7.4
				c0-1.9,0.5-3.6,1.6-5.3s2.6-2.9,4.6-3.7c2-0.9,4.4-1.3,7.2-1.3c4.6,0,8.1,1,10.4,3c2.3,2,3.6,5,3.7,8.4h-7.4
				c-0.3-1.9-1-3.2-2-4.1c-1-0.8-2.6-1.2-4.7-1.2c-2.1,0-3.8,0.4-5.1,1.3c-0.8,0.6-1.2,1.3-1.2,2.3c0,0.9,0.4,1.6,1.1,2.2
				c0.9,0.8,3.2,1.6,6.8,2.5s6.3,1.7,8,2.6s3.1,2.2,4.1,3.7c1,1.6,1.5,3.5,1.5,5.9c0,2.1-0.6,4.1-1.7,5.9c-1.2,1.8-2.8,3.2-5,4.1
				c-2.1,0.9-4.8,1.3-8,1.3c-4.6,0-8.2-1.1-10.7-3.2C536.3,33.6,534.8,29.7,534.3,25.6z"/>
			<path d="M570.4,38.3V1.5h7.4V16h14.5V1.5h7.4v36.8h-7.4V22.2h-14.5v16.1H570.4z"/>
		</g>
	</g>
</g>
</svg>
