<?xml version="1.0" encoding="utf-8"?>
<!-- Generator: Adobe Illustrator 25.0.0, SVG Export Plug-In . SVG Version: 6.00 Build 0)  -->
<svg version="1.1" id="Layer_1" xmlns="http://www.w3.org/2000/svg" xmlns:xlink="http://www.w3.org/1999/xlink" x="0px" y="0px"
	 viewBox="0 0 104 10.7" style="enable-background:new 0 0 104 10.7;" xml:space="preserve">
<style type="text/css">
	.st0{fill:#231815;}
	.st1{fill:#FFFFFF;}
	.st2{fill:#006241;}
</style>
<path class="st0" d="M69.5,5.9c0,3.2-1.8,4.8-5.1,4.8s-5-1.7-5-4.8V0.3H63v5.4c0,1.5,0.4,2.2,1.4,2.2s1.4-0.6,1.4-2.3V0.3h3.6
	L69.5,5.9z M20.4,0.3v2.6h-3v7.6h-3.7V2.9h-3.1V0.3H20.4z M26.6,2.6l-0.9,3.5h1.8L26.6,2.6z M29,10.5l-0.6-1.9h-3.5l-0.7,1.9h-3.7
	l3.7-10.2h4.7l3.7,10.2H29z M81.3,9.7L80.2,7c-0.7,0.6-1.5,0.9-2.4,0.9c-1.4,0-2.4-1.2-2.4-2.5V5.3c-0.1-1.3,0.8-2.5,2.2-2.7h0.2
	c0.9,0,1.8,0.4,2.4,1L81.3,1c-1.3-0.7-2.7-1-4.1-1c-2.9-0.1-5.4,2.2-5.5,5.1s2.2,5.4,5.1,5.5h0.5C78.7,10.8,80.1,10.4,81.3,9.7
	 M93.4,0.3l-3.3,5l3.7,5.2h-4.2l-2.3-3.7v3.7h-3.6V0.3h3.6V4l2.1-3.7H93.4z M4.4,10.7c2.3,0,4.7-0.8,4.7-3.4c0-2.3-2-3-3.6-3.3
	C4.3,3.8,3.8,3.6,3.8,3.2c0-0.6,0.8-0.7,1.2-0.7c1,0,2,0.4,2.9,0.9l1-2.3c-1.3-0.6-2.7-0.9-4.2-1c-2.4,0-4.3,1.2-4.3,3.5
	c0,1.9,1.5,2.7,3,3C4.5,6.9,5.2,7,5.2,7.5S4.7,8.2,4.1,8.2c-1.1,0-2.2-0.4-3-1.1L0,9.3C1.5,10.2,2.9,10.6,4.4,10.7 M99.3,10.7
	c2.3,0,4.7-0.8,4.7-3.4c0-2.3-2-3-3.6-3.3c-1.2-0.2-1.7-0.4-1.7-0.8c0-0.6,0.8-0.7,1.2-0.7c1,0,2,0.4,2.9,0.9l1-2.3
	c-1.3-0.6-2.7-0.9-4.2-1c-2.4,0-4.3,1.2-4.3,3.5c0,1.9,1.4,2.7,3.1,3c1.1,0.3,1.8,0.4,1.8,0.9s-0.6,0.7-1.1,0.7
	c-1.1,0-2.2-0.4-3-1.1l-1.2,2.2C96.3,10.2,97.8,10.6,99.3,10.7 M42.3,6.7c1.2-0.5,1.9-1.6,1.9-2.9c0-2.4-1.7-3.5-4-3.5h-5.5v10.2
	h3.6v-3h0.9l1.8,3h3.8L42.3,6.7z M40.7,3.8c0,0.6-0.4,1-0.9,1.1h-1.4V2.7h1.3c0.5-0.1,1,0.3,1.1,0.9C40.7,3.7,40.7,3.7,40.7,3.8z
	 M54.7,5.3c1.2-0.1,2.1-1.1,2-2.3c0-1.7-1.3-2.7-3.6-2.7h-5.8v10.2h5.6c2.7,0,4-1,4-2.9C57,6.4,56,5.4,54.7,5.3 M50.8,2.5h1.3
	c0.7,0,1.1,0.3,1.1,0.9s-0.4,0.9-1.1,0.9h-1.3V2.5z M53.2,7.3c0,0.6-0.4,0.9-1.2,0.9h-1.3V6.3H52C52.8,6.4,53.2,6.7,53.2,7.3
	L53.2,7.3z"/>
<path class="st1" d="M74.5-33.3c0,12.4-10.1,22.5-22.5,22.5S29.5-20.9,29.5-33.3S39.5-55.8,52-55.8S74.5-45.7,74.5-33.3"/>
<path class="st2" d="M54.3-46.2c-1.5-0.2-3-0.2-4.5,0c-0.1,0-0.2-0.1-0.1-0.2l2.3-1.8l2.3,1.8C54.5-46.2,54.4-46.2,54.3-46.2
	 M50.5-35c-0.1,0-0.1,0.1-0.1,0.1c0.5,0.4,0.8,1.2,1.8,1.2c1,0,1.3-0.8,1.8-1.2c0-0.1-0.1-0.1-0.1-0.1C52.7-34.9,51.6-34.9,50.5-35
	 M52.1-36.4c-0.3,0-0.4-0.1-0.5-0.1c-0.2,0-0.4,0.1-0.6,0.3c0,0.1,0.1,0.1,0.1,0.2c0.4,0.1,0.6,0.3,1,0.3c0.4,0,0.7-0.2,1-0.3
	c0.1-0.1,0.1-0.1,0.1-0.2c-0.2-0.2-0.4-0.2-0.6-0.3C52.5-36.5,52.4-36.4,52.1-36.4 M74.5-32.2c0,0.5-0.1,1.1-0.1,1.6
	c-2.5,0.4-3.5-1.9-6-1.7c0.2,0.5,0.3,1.1,0.4,1.7c2.2,0,3,2,5.4,1.7c-0.1,0.6-0.3,1.2-0.5,1.8c-1.9,0.2-2.6-1.7-4.7-1.6v1.5
	c1.9,0,2.5,1.7,4.2,1.6l-0.7,1.8c-1.3-0.1-1.7-1.7-3.7-1.6l-0.2,1.3c1.7-0.1,2,1.4,3.2,1.6c-0.3,0.5-0.7,1.1-1,1.6
	c-0.7-0.4-1.3-1.6-2.7-1.6l0.4-1.3c-1.4-0.1-2.7-0.6-3.7-1.6c0.4-2.2-2.9-4.3-2.9-5.9c0-1.7,0.8-2.6,0.8-4.9c-0.1-1.8-0.8-3.5-2-4.8
	c-0.2-0.2-0.5-0.4-0.8-0.6c1.3,1.4,2,3.1,2,5c0,2.2-1,3.3-1,5.3c0,2,2.9,3.7,2.9,5.7c0,0.8-0.2,1.6-1.1,3.1c1.1,1.1,2.5,1.9,4.1,2
	c0.3,0.1,0.5-0.1,0.7-0.4c0.1-0.2,0.2-0.5,0.3-0.7c1.2,0.1,1.7,1.1,2.4,1.6l-1.1,1.4c-0.4-0.5-1-1.3-1.9-1.6
	c-0.2,0.3-0.3,0.6-0.5,0.9c0.7,0.2,1.3,1,1.6,1.4l-1.3,1.3c-0.3-0.5-0.7-1-1.3-1.3c-0.2,0.2-0.4,0.5-0.6,0.7c0.4,0.4,0.8,0.8,1,1.3
	l-1.7,1.2c-0.3-2.3-3.4-3.8-2.6-6.5c-0.4,0.5-0.5,1.1-0.6,1.7c0,1.9,2,3.4,2.2,5.3l-1.3,0.7c-0.1-2.1-2.2-4.4-2.2-6.1
	c0-1.9,2.5-3.8,2.5-6.1s-2.9-3.8-2.9-5.8s1.3-3.1,1.3-5.7c0-1.9-0.8-3.7-2.3-5l-0.8-0.5c1.3,1.6,2,2.9,2,5.1c0,2.4-1.4,3.7-1.4,6
	s2.8,3.7,2.8,5.8s-2.6,4-2.6,6.3c0,2,2.3,4.1,2.3,6.5c-0.5,0.2-1,0.4-1.6,0.6c0.3-2.5-2.3-5-2.3-6.9c0-2.2,2.8-4.1,2.8-6.4
	s-2.8-3.5-2.8-5.9s1.7-3.8,1.7-6.4c0-2-0.9-3.9-2.5-5.1L55.9-43c-0.1-0.1-0.2,0-0.2,0.1c1.1,1.3,1.7,3,1.6,4.7c0,2.5-2,4.4-2,6.8
	c0,2.8,2.6,3.6,2.6,5.9s-2.8,4.1-2.8,6.6c0,2.3,2.7,4.7,2.2,7.4l-1.6,0.4c0.5-3.2-2.2-5.6-2.2-7.7c0-2.3,2.9-4.3,2.9-6.6
	c0-2.1-2.1-2.8-2.4-5c0-0.3-0.2-0.5-0.5-0.5h-0.1c-0.6,0.2-1.2,0.3-1.9,0.4c-0.6-0.1-1.2-0.2-1.9-0.4c-0.3-0.1-0.5,0.1-0.6,0.4v0.1
	c-0.3,2.2-2.4,2.9-2.4,5c0,2.3,2.9,4.3,2.9,6.6c0,2.1-2.6,4.4-2.2,7.7L46-11.7c-0.4-2.6,2.3-5.1,2.3-7.4c0-2.5-2.8-4.2-2.8-6.6
	s2.6-3.1,2.6-5.9c0-2.4-2-4.4-2-6.8c-0.1-1.7,0.5-3.4,1.6-4.7c0.1-0.1,0-0.2-0.2-0.1L47.5-43c-1.6,1.2-2.5,3.1-2.5,5.1
	c0,2.7,1.7,4,1.7,6.4s-2.8,3.5-2.8,5.9s2.8,4.2,2.8,6.4c0,2-2.6,4.5-2.3,6.9l-1.6-0.6c0.1-2.4,2.4-4.4,2.4-6.5
	c0-2.3-2.6-4.1-2.6-6.3s3.2-3.4,3.2-5.7s-1.4-3.7-1.4-6c0-2.2,0.7-3.5,2-5.1c-0.3,0.1-0.5,0.3-0.8,0.5c-1.4,1.3-2.2,3.1-2.3,5
	c0,2.5,1.3,3.7,1.3,5.7s-2.9,3.6-2.9,5.8s2.5,4.2,2.5,6.1c0,1.7-2.2,4-2.2,6.1l-1.3-0.7c0.2-1.9,2.2-3.4,2.2-5.3
	c-0.1-0.6-0.2-1.3-0.6-1.7c0.8,2.6-2.3,4.2-2.6,6.5L38-15.9c0.2-0.5,0.6-0.9,1-1.3c-0.2-0.2-0.4-0.5-0.6-0.7
	c-0.5,0.4-0.9,0.8-1.3,1.3l-1.3-1.3c0.4-0.5,0.9-1.3,1.6-1.4c-0.2-0.3-0.4-0.6-0.5-0.9c-0.8,0.2-1.4,1-1.9,1.6L33.9-20
	c0.7-0.4,1.2-1.5,2.4-1.6c0.1,0.2,0.2,0.5,0.3,0.7c0.1,0.3,0.4,0.4,0.7,0.4c1.6-0.2,3-0.9,4.1-2c-0.8-1.6-1.1-2.3-1.1-3.1
	c0-2,2.9-3.8,2.9-5.7s-1-3.1-1-5.3c0.1-1.9,0.8-3.7,2-5c-0.3,0.2-0.5,0.4-0.8,0.6c-1.3,1.3-2,3-2,4.8c0,2.3,0.8,3.2,0.8,4.9
	c0,1.6-3.3,3.7-2.9,5.9c-1,1-2.3,1.5-3.7,1.5l0.4,1.3c-1.4,0.1-2,1.3-2.7,1.6l-1-1.6c1.2-0.1,1.6-1.7,3.2-1.6l-0.2-1.3
	c-1.9-0.1-2.4,1.5-3.7,1.6c-0.3-0.6-0.5-1.2-0.7-1.8c1.8,0.1,2.4-1.6,4.2-1.6v-1.5c-2.2-0.1-2.9,1.8-4.7,1.6l-0.5-1.8
	c2.4,0.3,3.2-1.7,5.4-1.7l0.4-1.7c-2.6-0.1-3.5,2.2-6,1.7l-0.1-1.6c2.9,0.3,4.1-2.1,6.8-1.8c0.2-0.7,0.6-1.3,0.9-1.9
	c-3.4-0.6-4.5,2.2-7.7,1.8c0.4-12.4,10.7-22.1,23-21.8C64.4-55.4,74-45.9,74.3-34c-3.1,0.4-4.3-2.4-7.7-1.8c0.4,0.6,0.6,1.2,0.9,1.9
	C70.4-34.3,71.5-31.9,74.5-32.2 M42.4-41.6c-1.8-0.7-3.8-0.5-5.4,0.6c-0.2-1.6-1.1-2.9-2.3-3.8c-0.1-0.1-0.2-0.1-0.3,0
	c-0.1,0.1-0.1,0.1-0.1,0.2c0.2,3.4-1.7,6.3-4.1,8.9c2.5,0.7,4.6-2.5,7.8-1.3C39.2-38.9,40.7-40.4,42.4-41.6 M52.1-43.6
	c-2.1,0-3.8,1.2-4.3,2.7c-0.1,0.1,0,0.2,0.1,0.1c0.4-0.2,0.8-0.2,1.3-0.2c0.8-0.1,1.5,0.3,2,0.8c0.2,0.7,0.2,1.4,0,2.1
	c-0.4-0.1-0.5-0.4-0.8-0.4c-0.4,0-0.6,0.2-1.2,0.2s-0.7-0.3-1-0.3c-0.4,0-0.5,0.5-0.5,1c0,2.3,2.2,5.5,4.4,5.5
	c2.2,0,4.4-3.2,4.4-5.5c0-0.5-0.1-1-0.6-1c-0.3,0.2-0.6,0.4-1,0.3c-0.6,0-0.7-0.2-1.1-0.2c-0.4,0-0.4,0.9-0.8,0.9
	c-0.3-0.8-0.4-1.8-0.1-2.7c0.5-0.6,1.3-0.9,2-0.8c0.4,0,0.8,0.1,1.3,0.2c0.1,0.1,0.2,0,0.1-0.1C55.8-42.5,54.1-43.6,52.1-43.6
	 M55.3-40.3c-0.5,0-1.1,0.2-1.4,0.5c-0.1,0.1-0.1,0.2,0,0.4c0.9-0.3,1.7-0.3,2.1,0.1c0.2-0.1,0.2-0.4,0.2-0.5
	C56.2-40.1,55.9-40.3,55.3-40.3 M48-39.2c0.4-0.4,1.4-0.4,2.3-0.1c0.1-0.5-0.8-1-1.7-1c-0.6,0-0.9,0.2-0.9,0.5
	C47.8-39.6,47.9-39.3,48-39.2 M62.4-47.1c-1.6,0.1-3,0.7-4.2,1.6c0.5-1.3,1.1-2.6,1.9-3.8c-1.9,0.1-3.7,1-5.1,2.3l-1-2.6l2.2-2
	l-3-0.2l-1.2-2.8l-1.2,2.8l-3,0.2l2.2,2l-1,2.6c-1.4-1.4-3.2-2.2-5.1-2.3c0.8,1.2,1.4,2.5,1.9,3.8c-1.2-1-2.7-1.6-4.2-1.6
	c1,1.3,1.9,2.6,2.5,4.1c0.1,0.1,0.2,0.2,0.4,0.2h0.1c4.7-2.3,10.2-2.3,15,0c0.1,0.1,0.3,0.1,0.4-0.1v-0.1
	C60.6-44.5,61.4-45.9,62.4-47.1 M66-37.2c3.2-1.1,5.3,2.1,7.8,1.3c-2.4-2.6-4.4-5.4-4.1-8.9c0-0.1-0.1-0.2-0.2-0.2
	c-0.1,0-0.1,0-0.2,0.1c-1.3,0.9-2.1,2.3-2.3,3.8c-1.6-1.1-3.6-1.3-5.4-0.6C63.4-40.4,64.9-38.9,66-37.2"/>
</svg>
