<?xml version="1.0" standalone="no"?>
<!DOCTYPE svg PUBLIC "-//W3C//DTD SVG 20010904//EN"
 "http://www.w3.org/TR/2001/REC-SVG-20010904/DTD/svg10.dtd">
<svg version="1.0" xmlns="http://www.w3.org/2000/svg"
 width="3880.000000pt" height="741.000000pt" viewBox="0 0 3880.000000 741.000000"
 preserveAspectRatio="xMidYMid meet">

<g transform="translate(0.000000,741.000000) scale(0.100000,-0.100000)"
fill="#000000" stroke="none">
<path d="M2480 6240 c-283 -22 -559 -110 -755 -243 -86 -58 -235 -206 -293
-290 -127 -185 -203 -400 -232 -662 -14 -126 -13 -2566 1 -2711 52 -535 252
-879 613 -1050 310 -147 810 -153 1091 -15 124 61 245 183 315 315 39 73 59
65 99 -44 39 -105 111 -213 168 -253 99 -68 248 -94 358 -62 47 13 71 28 112
68 89 90 84 21 81 1138 l-3 974 -24 64 c-49 132 -170 248 -299 288 -50 16
-102 18 -407 18 -341 0 -351 -1 -405 -23 -173 -71 -266 -217 -263 -412 1 -135
54 -251 142 -311 30 -21 48 -24 148 -27 l113 -4 0 -326 c0 -180 -5 -358 -10
-395 -22 -149 -99 -223 -244 -234 -134 -10 -229 36 -278 135 l-23 47 -3 1445
c-2 1004 1 1461 8 1497 15 68 46 112 100 143 38 21 58 25 125 25 98 0 150 -25
186 -89 23 -40 24 -48 30 -351 6 -348 13 -388 84 -490 103 -150 307 -220 525
-181 216 39 362 172 432 396 22 71 23 90 23 340 -1 297 -12 376 -79 565 -144
403 -490 644 -1006 704 -132 15 -314 20 -430 11z"/>
<path d="M7800 6241 c-196 -27 -364 -146 -444 -314 -65 -138 -61 13 -61 -2217
0 -1947 1 -2038 18 -2095 63 -203 213 -349 412 -400 76 -19 224 -19 300 0 211
54 362 204 415 411 20 76 20 118 20 2088 0 1672 -3 2022 -14 2076 -46 215
-206 384 -412 434 -79 20 -167 26 -234 17z"/>
<path d="M19784 6239 c-209 -24 -396 -152 -483 -331 -71 -147 -66 34 -69
-2133 -2 -1296 1 -1976 7 -2028 34 -252 176 -430 413 -515 67 -24 86 -26 228
-26 142 0 161 2 228 26 205 74 340 219 392 424 19 73 20 113 20 781 0 663 1
703 18 703 13 0 66 -131 259 -643 134 -353 257 -682 274 -732 103 -296 274
-476 514 -541 93 -25 287 -30 379 -9 209 46 354 178 403 368 19 74 13 223 -12
305 -9 29 -205 512 -436 1074 -230 561 -419 1028 -419 1037 0 9 167 361 370
783 204 423 380 793 391 825 45 132 31 286 -37 399 -46 77 -76 108 -148 156
-89 58 -170 80 -296 80 -190 1 -302 -43 -426 -167 -103 -103 -111 -120 -500
-1022 -228 -529 -303 -692 -316 -693 -16 0 -18 46 -20 703 l-3 702 -31 81
c-85 226 -269 365 -522 394 -48 5 -91 9 -97 9 -5 -1 -42 -5 -81 -10z"/>
<path d="M36430 6239 c-216 -26 -346 -123 -400 -298 -29 -92 -83 -493 -77
-578 7 -129 69 -208 193 -249 45 -14 87 -19 179 -19 169 0 235 23 326 114 61
61 76 86 192 318 125 247 157 331 157 403 0 103 -67 208 -163 254 -105 51
-263 73 -407 55z"/>
<path d="M14582 6175 c-206 -45 -375 -204 -426 -401 -20 -77 -20 -212 -1 -284
51 -193 186 -326 395 -391 63 -20 96 -24 205 -23 209 0 338 47 456 165 138
137 190 336 139 533 -27 106 -63 169 -140 246 -118 119 -258 171 -454 169 -61
0 -139 -7 -174 -14z"/>
<path d="M22990 6170 c-109 -29 -195 -76 -265 -146 -215 -211 -218 -569 -7
-777 124 -122 257 -171 462 -171 208 0 335 47 455 168 110 111 155 225 155
393 0 244 -138 437 -371 519 -63 22 -95 27 -214 30 -117 3 -152 1 -215 -16z"/>
<path d="M24795 5904 c-220 -34 -397 -179 -473 -387 -25 -70 -26 -80 -30 -358
l-4 -286 -66 -12 c-172 -32 -292 -154 -323 -329 -19 -109 21 -239 101 -326 51
-55 142 -102 227 -117 l62 -11 4 -1086 c3 -1059 4 -1089 24 -1177 44 -193 123
-341 235 -439 181 -160 540 -235 934 -195 392 39 622 198 713 494 65 208 69
573 9 733 -30 80 -88 138 -156 158 -98 29 -211 4 -269 -58 -44 -47 -53 -88
-54 -245 0 -87 -5 -162 -12 -183 -34 -99 -187 -106 -234 -12 -17 35 -18 91
-21 1024 l-2 986 197 4 c224 5 266 14 349 77 211 160 212 472 1 631 -86 65
-119 73 -344 78 l-201 4 -4 282 c-4 254 -7 287 -26 346 -62 187 -207 329 -392
384 -56 17 -193 28 -245 20z"/>
<path d="M5380 4924 c-356 -43 -603 -143 -771 -314 -167 -170 -247 -423 -220
-695 20 -193 56 -289 145 -383 89 -94 200 -136 366 -136 157 0 273 39 359 119
90 85 102 137 87 405 -7 130 -7 137 16 180 31 60 76 85 153 85 73 0 122 -25
147 -75 24 -48 26 -336 3 -425 -32 -123 -116 -231 -246 -315 -77 -50 -268
-144 -399 -195 -350 -137 -581 -330 -699 -587 -72 -157 -98 -314 -86 -538 8
-164 26 -271 65 -393 59 -184 171 -322 322 -396 132 -65 217 -84 393 -85 178
-1 242 13 385 81 81 39 107 59 185 137 77 76 98 106 136 183 26 55 50 92 59
92 10 1 23 -24 38 -72 61 -194 216 -339 422 -394 93 -25 368 -25 460 1 202 56
343 201 380 393 18 93 9 266 -17 325 -26 58 -49 71 -111 62 -39 -5 -52 -2 -72
14 l-25 20 -6 1059 c-6 1168 -2 1095 -72 1281 -112 298 -366 474 -792 548 -87
15 -521 28 -605 18z m298 -2514 c-3 -463 -4 -468 -74 -530 -30 -26 -42 -30
-95 -30 -76 0 -113 19 -141 73 -22 40 -23 55 -26 297 -6 432 11 487 211 680
l122 118 3 -96 c2 -53 2 -284 0 -512z"/>
<path d="M9746 4915 c-282 -46 -494 -146 -674 -319 -158 -151 -252 -320 -310
-555 l-26 -106 -4 -820 c-2 -556 0 -851 8 -915 48 -413 255 -718 605 -891 239
-118 505 -159 835 -128 555 50 900 280 1014 672 43 146 59 392 35 537 -36 231
-210 363 -473 361 -166 -1 -275 -39 -362 -126 -83 -82 -96 -129 -103 -370 -6
-186 -8 -204 -31 -250 -32 -63 -88 -95 -169 -95 -75 0 -131 28 -162 83 l-24
42 -3 458 -3 457 545 0 c531 0 547 1 602 21 96 36 167 115 198 219 13 44 16
111 16 374 0 345 -8 447 -47 596 -26 102 -91 250 -143 325 -150 218 -396 359
-735 421 -126 23 -470 28 -589 9z m424 -748 c19 -12 43 -38 54 -57 20 -33 21
-54 24 -337 l3 -303 -176 0 -176 0 3 308 c3 302 3 308 26 345 32 51 65 66 143
67 52 0 73 -5 99 -23z"/>
<path d="M13185 4914 c-120 -26 -209 -75 -295 -162 -94 -96 -148 -199 -189
-363 -16 -62 -33 -115 -38 -116 -6 -2 -13 43 -16 104 -10 175 -51 280 -148
374 -102 101 -242 152 -414 153 -256 0 -453 -133 -537 -365 l-23 -64 -3 -1380
c-2 -987 0 -1397 8 -1440 6 -33 29 -98 51 -143 94 -196 287 -312 519 -312 267
0 474 146 558 394 l27 81 5 1145 5 1145 30 60 c17 32 42 68 56 78 34 25 101
33 139 17 63 -26 70 -67 60 -385 -3 -134 -2 -156 17 -201 59 -149 198 -228
403 -228 208 -1 355 75 462 238 130 201 168 645 83 982 -51 203 -148 311 -333
371 -99 33 -316 42 -427 17z"/>
<path d="M16643 4919 c-520 -80 -869 -376 -996 -847 l-32 -117 0 -895 c0 -965
-2 -922 55 -1110 124 -402 438 -665 905 -757 123 -24 445 -24 600 0 455 70
753 271 871 587 54 142 66 233 62 458 -4 235 -16 276 -103 370 -93 101 -201
143 -365 144 -220 0 -368 -76 -436 -225 -27 -59 -28 -71 -35 -262 -7 -216 -15
-254 -66 -308 -50 -51 -158 -63 -233 -24 -35 17 -51 34 -70 72 l-25 50 -3 448
-3 447 550 0 c539 0 551 0 608 22 77 28 152 103 184 183 24 60 24 62 24 430 0
386 -5 441 -52 604 -74 259 -232 459 -463 585 -84 46 -280 110 -400 131 -111
20 -480 29 -577 14z m405 -749 c20 -13 42 -39 55 -68 21 -44 22 -64 25 -339
l4 -293 -182 0 -182 0 4 293 c3 273 5 295 25 339 30 65 69 88 153 88 48 0 74
-5 98 -20z"/>
<path d="M27355 4915 c-125 -18 -216 -39 -325 -78 -175 -61 -284 -130 -402
-255 -91 -98 -156 -220 -195 -367 -23 -90 -26 -119 -26 -280 -1 -248 30 -412
109 -583 104 -227 268 -364 868 -722 142 -85 283 -175 315 -200 107 -87 149
-184 138 -326 -11 -152 -58 -223 -163 -244 -65 -14 -151 -7 -193 15 -42 21
-89 80 -101 125 -6 22 -10 100 -8 173 2 121 0 136 -21 180 -55 114 -224 187
-433 187 -222 -1 -387 -88 -471 -248 -47 -90 -67 -175 -67 -292 0 -306 158
-538 463 -680 338 -158 909 -196 1291 -85 302 88 507 254 626 507 149 318 146
796 -7 1103 -123 246 -294 384 -838 675 -126 68 -255 140 -285 161 -128 86
-171 162 -178 305 -9 183 54 263 205 264 75 0 108 -11 151 -53 47 -45 63 -109
61 -242 -2 -127 11 -163 78 -226 67 -65 146 -95 285 -109 210 -21 391 42 482
167 53 73 70 140 69 273 -5 459 -279 752 -793 845 -130 24 -497 29 -635 10z"/>
<path d="M33870 4915 c-161 -34 -273 -91 -381 -193 -43 -40 -96 -102 -119
-138 -38 -61 -100 -198 -100 -223 0 -6 -9 -11 -19 -11 -16 0 -21 9 -26 48 -30
221 -125 369 -287 445 -99 47 -165 61 -283 61 -167 -1 -305 -61 -412 -178 -29
-31 -66 -85 -82 -119 -64 -131 -61 -46 -61 -1550 0 -1511 -4 -1419 63 -1557
21 -43 56 -89 102 -135 112 -113 243 -165 415 -165 252 0 460 140 550 370 l25
65 5 1140 5 1140 22 56 c23 55 67 106 113 129 35 18 135 16 165 -4 14 -9 33
-28 42 -43 17 -25 18 -102 23 -1213 l5 -1185 24 -65 c34 -95 83 -170 154 -236
218 -205 581 -207 799 -6 76 70 119 137 155 239 l28 78 3 1240 c2 844 0 1274
-8 1347 -35 352 -194 566 -480 648 -97 28 -341 37 -440 15z"/>
<path d="M36145 4924 c-185 -28 -336 -73 -470 -142 -350 -181 -557 -503 -596
-931 -7 -75 -9 -390 -6 -886 4 -731 5 -775 24 -865 57 -263 150 -437 321 -602
239 -231 568 -340 977 -324 437 16 739 123 945 336 110 112 165 215 212 388
25 97 38 423 19 514 -46 219 -220 343 -477 340 -154 -1 -273 -43 -353 -123
-86 -86 -111 -177 -111 -404 0 -82 -5 -167 -10 -187 -25 -88 -104 -135 -212
-125 -72 6 -103 26 -138 88 l-25 44 -3 453 -3 452 544 0 c430 0 553 3 589 14
99 29 176 109 215 220 16 45 18 89 18 386 0 424 -18 552 -100 743 -50 118 -92
181 -179 274 -158 168 -354 265 -643 319 -85 15 -468 28 -538 18z m365 -752
c19 -9 43 -33 55 -52 19 -33 20 -54 23 -342 l3 -308 -175 0 -176 0 0 270 c0
156 5 290 11 320 11 53 48 106 83 120 38 16 139 11 176 -8z"/>
<path d="M14645 4899 c-241 -37 -400 -175 -463 -401 -16 -58 -17 -163 -17
-1448 0 -1313 1 -1388 18 -1450 72 -254 279 -400 567 -400 239 0 426 103 515
284 69 139 66 66 63 1604 l-3 1387 -27 74 c-80 219 -254 340 -511 355 -45 3
-109 1 -142 -5z"/>
<path d="M23068 4900 c-139 -22 -273 -91 -348 -178 -55 -65 -87 -128 -110
-218 -19 -75 -20 -115 -20 -1453 0 -1191 2 -1385 15 -1440 47 -198 202 -348
411 -397 102 -24 284 -15 381 19 178 63 288 184 340 377 17 61 18 157 18 1440
0 1537 5 1437 -71 1581 -65 123 -197 222 -344 257 -67 16 -207 22 -272 12z"/>
<path d="M29575 4901 c-199 -33 -353 -138 -430 -294 -67 -137 -65 -79 -65
-1457 0 -1312 1 -1340 46 -1490 51 -171 180 -331 324 -402 204 -101 501 -114
709 -31 217 85 385 286 452 540 30 112 49 112 49 1 1 -165 52 -308 145 -403
63 -65 111 -95 205 -130 98 -36 271 -46 370 -21 212 53 354 204 395 419 23
121 22 2712 -1 2824 -57 278 -271 445 -569 446 -283 2 -494 -149 -571 -409
-17 -55 -18 -145 -23 -1204 -5 -896 -9 -1151 -19 -1174 -37 -84 -97 -126 -183
-126 -72 0 -117 24 -140 74 -18 39 -19 93 -19 1179 0 1264 2 1222 -67 1366
-64 133 -193 237 -347 276 -75 19 -196 26 -261 16z"/>
</g>
</svg>
