<?xml version="1.0" encoding="UTF-8" standalone="no"?>
<!-- Generator: Adobe Illustrator 25.4.1, SVG Export Plug-In . SVG Version: 6.00 Build 0)  -->

<svg
   xmlns:dc="http://purl.org/dc/elements/1.1/"
   xmlns:cc="http://creativecommons.org/ns#"
   xmlns:rdf="http://www.w3.org/1999/02/22-rdf-syntax-ns#"
   xmlns:svg="http://www.w3.org/2000/svg"
   xmlns="http://www.w3.org/2000/svg"
   xmlns:sodipodi="http://sodipodi.sourceforge.net/DTD/sodipodi-0.dtd"
   xmlns:inkscape="http://www.inkscape.org/namespaces/inkscape"
   version="1.1"
   id="Calque_1"
   x="0px"
   y="0px"
   viewBox="0 0 689.99998 237.2"
   xml:space="preserve"
   sodipodi:docname="logo-km-2.svg"
   width="690"
   height="237.2"
   inkscape:version="0.92.5 (2060ec1f9f, 2020-04-08)"><metadata
   id="metadata1101"><rdf:RDF><cc:Work
       rdf:about=""><dc:format>image/svg+xml</dc:format><dc:type
         rdf:resource="http://purl.org/dc/dcmitype/StillImage" /></cc:Work></rdf:RDF></metadata><defs
   id="defs1099" /><sodipodi:namedview
   pagecolor="#ffffff"
   bordercolor="#666666"
   borderopacity="1"
   objecttolerance="10"
   gridtolerance="10"
   guidetolerance="10"
   inkscape:pageopacity="0"
   inkscape:pageshadow="2"
   inkscape:window-width="1920"
   inkscape:window-height="1043"
   id="namedview1097"
   showgrid="false"
   inkscape:zoom="0.39643878"
   inkscape:cx="345.05001"
   inkscape:cy="135.15001"
   inkscape:window-x="0"
   inkscape:window-y="0"
   inkscape:window-maximized="1"
   inkscape:current-layer="Calque_1" />
<g
   id="g1086"
   transform="translate(-75.9,-195.6)">
	<path
   d="m 186.2,210.2 h -15.8 l -70.5,42 v -42 h -24 V 315 h 24 v -43.9 l 69.3,43.9 h 17.7 v -16 l -61.2,-37.4 60.4,-36 v -15.4 z m 339.4,0 v 56.4 c 0,18.9 -7.7,28.8 -31.2,28.8 -25.4,0 -31.2,-9.8 -31.2,-28.8 v -56.4 h -24 v 56.4 c 0,32.6 11.8,50.6 55.2,50.6 43.4,0 55.2,-18 55.2,-50.6 v -56.4 z m -184,0 H 220 v 20.1 h 41.5 V 315 h 24 v -84.7 h 36.9 c 2.2,-7.9 8.9,-16.1 19.2,-19.4 z m 94.8,77 c 0,-13.2 -8.6,-25.9 -37.2,-32.9 l -29.5,-7.2 c -11.5,-2.9 -18,-6.2 -18,-10.8 0,-5.5 7,-8.4 19.7,-8.4 21.8,0 42.9,7.2 52.5,11 l 11.3,-18.5 c -7.4,-3.6 -30,-12.2 -56.8,-12.2 -36.9,0 -52.3,13.2 -52.3,30.2 0,12 7.4,22.8 37.2,30.2 l 26.6,6.7 c 14.2,3.6 20.6,7 20.6,12.2 0,6.5 -7.4,9.4 -18.7,9.4 -23,0 -43.2,-5.8 -57.1,-11.5 l -9.6,19.7 c 8.2,3.4 35,12 58.8,12 38.6,0.1 52.5,-14.5 52.5,-29.9 m 329.3,-91.6 h -90.4 v 8.4 h 90.4 z M 765.9,315 H 675.2 V 210.2 h 90.4 v 20.9 h -66.4 v 20.6 h 66.2 v 20.6 h -66.2 v 21.6 h 66.7 z m -97.4,0 H 639 L 579.8,242.8 V 315 h -24 V 210.2 h 28.8 l 60,73.6 v -73.6 h 24 V 315 Z m -453.3,0 h -24 V 210.2 h 24 z"
   id="path1084"
   inkscape:connector-curvature="0" />
</g>
<g
   id="g1094"
   transform="translate(-75.9,-195.6)">
	<path
   d="m 519.3,389.8 c 0.4,-2.3 -0.9,-4.2 -3.5,-4.8 -2.2,-0.3 -5,1 -7.9,2.5 -3.1,1.5 -6.4,3.1 -9,2.7 -1.4,-0.1 -3.1,-0.7 -5.2,-6.2 l -2.2,-5.8 c -2.1,-5.3 -4.5,-10.4 -8.1,-11.7 -9.9,-3.5 -31.7,5.4 -42,10.1 0.2,-5.2 -1.4,-9.8 -4.7,-13.5 -4,-4.5 -10,-6.8 -13.8,-6.8 -5.1,0 -6.3,1.8 -12.1,10.3 -6,9.1 -9.6,13.1 -14.4,13.1 -4.9,0 -10,-6 -13.3,-9.9 -2.6,-3 -3.8,-4.4 -5,-4.4 -1.1,0 -2.7,1.2 -5.8,3.7 -5.7,4.5 -14.2,11.3 -21.9,10.1 -4,-0.6 -6.1,-4.7 -7.9,-8.2 -1.4,-2.8 -2.7,-5.3 -4.8,-5.3 -1.4,0 -2.6,1.3 -4.4,3 -12.2,12.2 -18.4,13.9 -23.2,13.9 -3.4,0 -6.1,-1.2 -8.3,-3.5 -7.8,-8.5 -6.8,-30.7 -5.3,-46.6 0.5,-5.7 0,-8.9 -1.4,-10.5 -0.6,-0.7 -1.5,-1 -2.5,-1 -2.5,0 -5.8,2.3 -11,7.6 l -48.3,49.3 c -11.5,12 -16,13.2 -17.5,13.2 -0.5,0 -0.9,-0.1 -1.2,-0.5 -1.3,-1.4 -1.6,-5.7 -1.1,-14.1 l 2.2,-34.2 c 0.5,-6.8 0.1,-9.9 -1.2,-11.2 -0.5,-0.6 -1.3,-0.9 -2.1,-0.9 -1.7,0 -3.6,1.2 -7.4,4.8 l -1.4,1.3 c -12.5,11.9 -26.6,25.3 -38.9,39.1 -10.9,12.3 -22.6,26.3 -31.3,37.6 -5.6,7.3 -8.1,12.3 -8.1,16.1 0,2.2 1.2,3.7 2.9,3.7 2.1,0 3.5,-1.8 6.7,-5.7 6.9,-8.6 25.7,-31.3 39.9,-47.1 10.5,-11.6 20.8,-22 33.3,-33.2 l -2.2,31.6 c -0.7,11 0.5,18.1 3.7,21.5 1.6,1.7 3.7,2.6 6.3,2.6 5.7,0 10.9,-3.4 21.5,-14 6.3,-6.3 19.7,-19.8 31.4,-31.6 8.3,-8.3 16.1,-16.3 20.4,-20.5 v 0.2 c -2.2,27.6 0.2,44.1 7.6,52.1 3.4,3.7 7.9,5.5 13.4,5.5 7.6,0 15.6,-4.3 25.3,-13.6 3.5,5.8 7.2,9.7 13.2,10.6 8.5,1.2 16.7,-4.6 22.6,-8.9 2.6,-1.9 5.1,-3.6 6.1,-3.6 0.5,0 2.2,1.4 3.5,2.6 3.6,3.1 9,7.8 15.8,7.8 7,0 13.3,-4.6 21.8,-15.9 l 3.3,-4.3 c 4.6,0.7 11.5,4.3 13.3,10.1 -6,3.1 -9.2,8.6 -9.2,12.6 0,4 2.4,6.7 6.1,6.7 5.2,0 7.8,-5.4 9.7,-10.8 9.4,-5.6 28.6,-9.8 36.6,-9.8 3.9,0 5.5,2.2 7.1,6.2 l 2.6,6.8 c 2,5.5 5.1,8.4 9.5,9.1 5.3,0.8 14.7,-2.7 19.3,-6.2 1.5,-1.6 2.4,-2.8 2.5,-3.8 z"
   id="path1088"
   inkscape:connector-curvature="0" />
	<path
   d="m 498.6,343.6 c 0.7,0.1 1.4,0.2 2.1,0.2 4.1,0 8.8,-1.7 11.5,-3.7 1.5,-1.1 2.4,-2.4 2.6,-3.6 0.5,-4 -0.9,-5.9 -4.7,-6.6 v 0 c -2.2,-0.3 -6,0.4 -9.5,1.8 -2.4,1 -6.4,3.1 -6.9,6.1 -0.5,3.3 2.1,5.3 4.9,5.8 z"
   id="path1090"
   inkscape:connector-curvature="0" />
	<path
   d="m 711.3,383.6 v 0 c -1.4,-0.1 -3.6,0 -6.7,0.1 -6.2,0.3 -15.6,0.8 -24.9,-0.5 -12.2,-1.8 -19.4,-4 -24.9,-6.2 2.9,-1.6 6.4,-4.3 7,-8.5 0.7,-4.4 -2.9,-8.5 -8.1,-9.4 -3.5,-0.6 -6.6,0.2 -9,2.3 -3.1,2.8 -4.8,7.5 -4.6,13.4 -1.4,1.6 -5.4,5.4 -9.5,4.8 -3.8,-0.6 -7,-6.1 -9.2,-9.7 -1.7,-2.9 -2.5,-4.2 -3.5,-4.4 -1.2,-0.3 -2.9,0.9 -6.5,3.8 -5.8,4.4 -14.5,11.1 -22,10 -4.2,-0.7 -6.3,-5.3 -7.9,-8.9 -1.2,-2.7 -2.1,-4.6 -3.6,-4.8 -3.5,-0.4 -23.1,14.8 -38.7,29.1 1.8,-7 2.1,-14.5 0.9,-22.3 -0.8,-5.9 -1.1,-9.8 -0.4,-14.7 1.2,-8.4 7.6,-14.4 18.9,-18 l 1,-0.3 c 4.5,-1.4 7,-2.1 6.8,-6.2 -0.3,-4.3 -2.7,-5.2 -4.7,-5.6 -4.6,-0.8 -10,0.9 -15.4,4.8 -7.6,5.5 -13.3,14.1 -14.5,21.9 -1,7.2 -0.3,12.7 0.5,18 0.7,5.1 1.4,9.8 0.5,16 -0.9,6.7 -3.6,12.8 -9.2,21.3 -5.3,7.9 -7.3,11.7 -7.9,15 -0.3,1.4 0.1,2.8 0.9,3.9 0.8,1 1.9,1.6 3.1,1.7 0.2,0 0.3,0 0.5,0 2.1,0 4,-1.8 8.5,-7.7 13.3,-17.5 27.8,-31.4 45.7,-43.6 3.8,7.9 7.9,11.5 13.6,12.3 8.6,1.1 17.8,-5.3 23.9,-9.5 2.1,-1.4 4.4,-3.1 5.1,-3.1 0,0 0,0 0,0 0.4,0.1 1.3,1.4 2,2.4 2,2.7 4.6,6.5 9,7.2 4.4,0.8 9.7,-1.3 16.5,-6.1 8.8,6.1 17.9,9.6 31.1,11.7 12.1,1.9 24.5,2.2 29.4,2 6.3,-0.2 11.2,-3.1 11.6,-6.8 -0.1,-3 -1.9,-5 -5.3,-5.4 z"
   id="path1092"
   inkscape:connector-curvature="0" />
</g>
</svg>