<?xml version="1.0" encoding="utf-8"?>
<!-- Generator: Adobe Illustrator 25.0.0, SVG Export Plug-In . SVG Version: 6.00 Build 0)  -->
<svg version="1.1" id="layer" xmlns="http://www.w3.org/2000/svg" xmlns:xlink="http://www.w3.org/1999/xlink" x="0px" y="0px"
	 viewBox="0 0 600.1 40.3" style="enable-background:new 0 0 600.1 40.3;" xml:space="preserve">
<path d="M29.5,4.3V11c-3.3-2.7-6.6-4.1-10.1-4.1c-3.8,0-7.1,1.4-9.7,4.1s-4,6.1-4,10.1c0,3.9,1.3,7.2,4,9.9c2.6,2.7,5.9,4,9.7,4
	c2,0,3.7-0.3,5.1-1c0.8-0.3,1.6-0.8,2.4-1.3c0.8-0.5,1.7-1.2,2.6-2v6.8c-3.2,1.8-6.6,2.7-10.2,2.7c-5.3,0-9.9-1.9-13.7-5.6
	C1.8,30.8,0,26.3,0,21c0-4.8,1.6-9,4.7-12.7c3.9-4.6,8.9-6.8,15-6.8C23.1,1.6,26.4,2.5,29.5,4.3"/>
<polyline points="55.2,16.9 71.3,16.9 71.3,2.3 76.9,2.3 76.9,39.7 71.3,39.7 71.3,22.2 55.2,22.2 55.2,39.7 49.6,39.7 49.6,2.3 
	55.2,2.3 "/>
<path d="M119.7,30.6h-16l-4.2,9.1h-6.1L111.9,0l17.8,39.7h-6.2 M117.4,25.3l-5.5-12.7l-5.8,12.7H117.4z"/>
<path d="M159,23.8l11.6,15.9h-6.9L153,24.4h-1v15.3h-5.6V2.4h6.6c4.9,0,8.5,0.9,10.7,2.8c2.4,2.1,3.6,4.8,3.6,8.2
	c0,2.6-0.8,4.9-2.3,6.8C163.5,22,161.5,23.2,159,23.8 M152,19.5h1.8c5.3,0,8-2,8-6.1c0-3.8-2.6-5.7-7.8-5.7h-2V19.5z"/>
<polyline points="193.7,2.3 193.7,34.4 204.7,34.4 204.7,39.7 188.1,39.7 188.1,2.3 "/>
<polyline points="242.5,7.6 227.5,7.6 227.5,16.6 242.1,16.6 242.1,21.9 227.5,21.9 227.5,34.4 242.5,34.4 242.5,39.7 221.9,39.7 
	221.9,2.3 242.5,2.3 "/>
<path d="M282.9,7.9l-4.6,2.7c-0.9-1.5-1.7-2.5-2.4-2.9c-0.8-0.5-1.8-0.8-3.1-0.8c-1.6,0-2.9,0.4-3.9,1.3s-1.5,2-1.5,3.3
	c0,1.8,1.4,3.3,4.1,4.4l3.7,1.5c3,1.2,5.2,2.7,6.7,4.5c1.4,1.8,2.1,3.9,2.1,6.5c0,3.4-1.1,6.3-3.4,8.5c-2.3,2.3-5.2,3.4-8.6,3.4
	c-3.2,0-5.9-1-8-2.9s-3.4-4.6-3.9-8.1l5.7-1.3c0.3,2.2,0.7,3.7,1.4,4.5c1.2,1.6,2.9,2.4,5.1,2.4c1.8,0,3.2-0.6,4.4-1.8
	c1.2-1.2,1.7-2.7,1.7-4.5l-0.3-2l-0.9-1.7l-1.7-1.4c-0.7-0.4-1.5-0.9-2.4-1.3l-3.6-1.5c-5.1-2.2-7.7-5.3-7.7-9.5
	c0-2.8,1.1-5.1,3.2-7s4.8-2.8,8-2.8C277.1,1.6,280.5,3.7,282.9,7.9"/>
<path d="M351.3,18.9L358,27l0.2-0.2c0.7-0.8,1.4-1.6,2.1-2.3c0.6-0.8,1.3-1.5,1.9-2.3l3.7,3.8c-0.4,0.6-1,1.4-1.8,2.3
	c-0.7,0.9-1.6,1.8-2.6,2.9l6.9,8.5h-7l-3.7-4.6c-3.4,3.5-7,5.3-10.7,5.3c-3.3,0-6.1-1.1-8.4-3.2s-3.4-4.8-3.4-7.9
	c0-3.7,1.8-6.8,5.4-9.3l2.4-1.7l0.2-0.1l0.3-0.3c-2.5-2.6-3.7-5.2-3.7-7.8c0-2.5,0.8-4.6,2.5-6.1c1.7-1.6,3.8-2.4,6.5-2.4
	c2.6,0,4.7,0.8,6.4,2.3c1.7,1.5,2.5,3.5,2.5,5.8c0,1.6-0.5,3.1-1.4,4.4C355.4,15.5,353.7,17.1,351.3,18.9 M346.9,22.1l-0.3,0.2
	c-2.3,1.6-3.9,2.9-4.7,3.9c-0.8,1-1.2,2-1.2,3.1c0,1.6,0.6,3,1.9,4.3c1.3,1.2,2.7,1.9,4.3,1.9c2.2,0,4.7-1.4,7.5-4.3L346.9,22.1z
	 M348.1,14.9l0.5-0.3c0.8-0.6,1.4-1.1,2-1.6l1.1-1.1c0.5-0.6,0.7-1.3,0.7-2.2c0-1-0.3-1.8-1-2.4s-1.5-0.9-2.7-0.9
	c-1,0-1.9,0.3-2.6,0.9s-1,1.4-1,2.3c0,1.1,0.4,2.2,1.3,3.2l1.4,1.7L348.1,14.9"/>
<polyline points="431.4,17.2 446,2.3 453.5,2.3 436.6,19.2 453.6,39.7 446,39.7 432.6,23.1 431.4,24.2 431.4,39.7 425.8,39.7 
	425.8,2.3 431.4,2.3 "/>
<polyline points="491.1,7.6 476.1,7.6 476.1,16.6 490.7,16.6 490.7,21.9 476.1,21.9 476.1,34.4 491.1,34.4 491.1,39.7 470.5,39.7 
	470.5,2.3 491.1,2.3 "/>
<rect x="510.4" y="2.3" width="5.6" height="37.3"/>
<polyline points="547.2,7.6 547.2,39.7 541.6,39.7 541.6,7.6 533,7.6 533,2.3 555.8,2.3 555.8,7.6 "/>
<polyline points="578.3,16.9 594.4,16.9 594.4,2.3 600.1,2.3 600.1,39.7 594.4,39.7 594.4,22.2 578.3,22.2 578.3,39.7 572.7,39.7 
	572.7,2.3 578.3,2.3 "/>
</svg>
