<?xml version="1.0" encoding="utf-8"?>
<!-- Generator: Adobe Illustrator 16.0.0, SVG Export Plug-In . SVG Version: 6.00 Build 0)  -->
<!DOCTYPE svg PUBLIC "-//W3C//DTD SVG 1.1//EN" "http://www.w3.org/Graphics/SVG/1.1/DTD/svg11.dtd">
<svg version="1.1" id="Layer_1" xmlns="http://www.w3.org/2000/svg" xmlns:xlink="http://www.w3.org/1999/xlink" x="0px" y="0px"
	 width="578.428px" height="267.645px" viewBox="0 0 578.428 267.645" enable-background="new 0 0 578.428 267.645"
	 xml:space="preserve">
<g>
	<path fill="#FFFFFF" d="M28.435,4.145v6.458C25.254,8,22.073,6.651,18.699,6.651c-3.663,0-6.843,1.349-9.349,3.952
		c-2.506,2.602-3.855,5.879-3.855,9.734c0,3.76,1.252,6.939,3.855,9.542c2.506,2.604,5.687,3.855,9.349,3.855
		c1.928,0,3.567-0.289,4.916-0.963c0.771-0.29,1.542-0.771,2.313-1.253c0.771-0.482,1.638-1.157,2.506-1.93v6.557
		c-3.084,1.733-6.361,2.602-9.832,2.602c-5.109,0-9.542-1.831-13.205-5.396C1.735,29.687,0,25.35,0,20.242
		C0,15.615,1.542,11.567,4.531,8c3.759-4.434,8.578-6.555,14.458-6.555C22.266,1.542,25.446,2.409,28.435,4.145"/>
	<polyline fill="#FFFFFF" points="53.207,16.29 68.725,16.29 68.725,2.217 74.123,2.217 74.123,38.266 68.725,38.266 68.725,21.398 
		53.207,21.398 53.207,38.266 47.809,38.266 47.809,2.217 53.207,2.217 	"/>
	<path fill="#FFFFFF" d="M115.377,29.494H99.955l-4.048,8.771h-5.88L107.859,0l17.157,38.267h-5.976 M113.16,24.387l-5.301-12.242
		l-5.591,12.242H113.16z"/>
	<path fill="#FFFFFF" d="M153.257,22.94l11.182,15.325h-6.651l-10.314-14.747h-0.964v14.747h-5.397V2.313h6.361
		c4.723,0,8.193,0.868,10.314,2.699c2.313,2.023,3.47,4.627,3.47,7.903c0,2.507-0.771,4.725-2.217,6.556
		C157.596,21.206,155.667,22.362,153.257,22.94 M146.51,18.795h1.735c5.109,0,7.712-1.928,7.712-5.88
		c0-3.663-2.506-5.494-7.519-5.494h-1.928V18.795L146.51,18.795z"/>
	<polyline fill="#FFFFFF" points="186.705,2.217 186.705,33.158 197.307,33.158 197.307,38.266 181.307,38.266 181.307,2.217 	"/>
	<polyline fill="#FFFFFF" points="233.742,7.326 219.284,7.326 219.284,16 233.356,16 233.356,21.109 219.284,21.109 
		219.284,33.158 233.742,33.158 233.742,38.266 213.886,38.266 213.886,2.217 233.742,2.217 	"/>
	<path fill="#FFFFFF" d="M272.683,7.615l-4.434,2.602c-0.867-1.444-1.638-2.408-2.313-2.795c-0.771-0.481-1.735-0.771-2.988-0.771
		c-1.542,0-2.795,0.385-3.759,1.252c-0.963,0.868-1.445,1.928-1.445,3.181c0,1.735,1.349,3.182,3.952,4.241l3.565,1.445
		c2.893,1.156,5.013,2.603,6.458,4.338c1.349,1.734,2.024,3.759,2.024,6.266c0,3.276-1.061,6.071-3.277,8.193
		c-2.217,2.216-5.013,3.276-8.29,3.276c-3.084,0-5.686-0.964-7.711-2.795c-2.024-1.833-3.277-4.434-3.758-7.808l5.494-1.253
		c0.29,2.121,0.674,3.566,1.349,4.337c1.157,1.542,2.796,2.313,4.917,2.313c1.734,0,3.084-0.578,4.24-1.733
		c1.157-1.157,1.64-2.604,1.64-4.338l-0.29-1.929l-0.868-1.638l-1.638-1.351c-0.675-0.386-1.446-0.868-2.314-1.252l-3.47-1.445
		c-4.916-2.122-7.422-5.11-7.422-9.158c0-2.698,1.06-4.915,3.084-6.747c2.024-1.831,4.627-2.698,7.711-2.698
		C267.092,1.542,270.371,3.566,272.683,7.615"/>
	<path fill="#FFFFFF" d="M338.612,18.217l6.457,7.808l0.193-0.193c0.676-0.77,1.35-1.541,2.023-2.216
		c0.579-0.771,1.254-1.446,1.831-2.217l3.567,3.663c-0.386,0.577-0.965,1.349-1.735,2.217c-0.675,0.868-1.544,1.735-2.507,2.795
		l6.65,8.193h-6.746l-3.566-4.435c-3.277,3.374-6.746,5.109-10.313,5.109c-3.182,0-5.88-1.062-8.097-3.084
		c-2.218-2.025-3.277-4.627-3.277-7.615c0-3.567,1.735-6.556,5.205-8.964l2.313-1.639l0.191-0.097l0.289-0.29
		c-2.408-2.506-3.566-5.012-3.566-7.518c0-2.41,0.771-4.436,2.41-5.88c1.639-1.542,3.662-2.313,6.266-2.313
		c2.507,0,4.529,0.771,6.169,2.217c1.639,1.445,2.409,3.373,2.409,5.591c0,1.542-0.481,2.987-1.351,4.24
		C342.565,14.94,340.927,16.482,338.612,18.217 M334.372,21.302l-0.29,0.193c-2.217,1.542-3.758,2.796-4.53,3.759
		c-0.771,0.963-1.154,1.929-1.154,2.988c0,1.541,0.578,2.891,1.83,4.144c1.252,1.156,2.604,1.831,4.146,1.831
		c2.121,0,4.53-1.349,7.229-4.145L334.372,21.302z M335.528,14.362l0.48-0.29c0.772-0.578,1.35-1.06,1.928-1.542l1.062-1.062
		c0.481-0.578,0.675-1.253,0.675-2.12c0-0.965-0.289-1.735-0.963-2.313c-0.675-0.578-1.447-0.868-2.604-0.868
		c-0.965,0-1.832,0.29-2.506,0.868c-0.675,0.579-0.963,1.35-0.963,2.217c0,1.062,0.385,2.121,1.252,3.085l1.348,1.639
		L335.528,14.362"/>
	<polyline fill="#FFFFFF" points="415.819,16.579 429.893,2.217 437.122,2.217 420.832,18.507 437.218,38.266 429.893,38.266 
		416.978,22.265 415.819,23.326 415.819,38.266 410.423,38.266 410.423,2.217 415.819,2.217 	"/>
	<polyline fill="#FFFFFF" points="473.364,7.326 458.906,7.326 458.906,16 472.979,16 472.979,21.109 458.906,21.109 
		458.906,33.158 473.364,33.158 473.364,38.266 453.508,38.266 453.508,2.217 473.364,2.217 	"/>
	<rect x="491.968" y="2.217" fill="#FFFFFF" width="5.396" height="35.953"/>
	<polyline fill="#FFFFFF" points="527.438,7.326 527.438,38.266 522.04,38.266 522.04,7.326 513.751,7.326 513.751,2.217 
		535.727,2.217 535.727,7.326 	"/>
	<polyline fill="#FFFFFF" points="557.414,16.29 572.933,16.29 572.933,2.217 578.428,2.217 578.428,38.266 572.933,38.266 
		572.933,21.398 557.414,21.398 557.414,38.266 552.017,38.266 552.017,2.217 557.414,2.217 	"/>
</g>
<g>
	<path fill="#FFFFFF" d="M289.214,81.948l-14.347,14.399l-2.575-2.522l14.398-14.399L272.292,65.08l2.575-2.575l14.347,14.399
		l14.398-14.399l2.522,2.523L291.79,79.425l14.346,14.399l-2.523,2.522L289.214,81.948z"/>
</g>
<g transform="translate(0.000000,152.000000) scale(0.100000,-0.100000)">
	<path fill="#FFFFFF" d="M2123.442,246.555V129.553l50,49.004l50,49.004v67.998v67.998h-50h-50V246.555z"/>
	<path fill="#FFFFFF" d="M2375.444-103.445c2.998-460.996,2.998-468.994,25-508.994c40-75,105.996-117.002,200.996-130l52.002-7.002
		v55v55l-42.002,5.996c-50.996,7.002-86.997,32.998-110,77.998c-15.996,30-17.998,67.002-17.998,307.002V23.557h85h85v50v50h-85h-85
		v120v120h-55h-56.001L2375.444-103.445z"/>
	<path fill="#FFFFFF" d="M2743.442,68.557v-55h145c80.005,0,145.005-2.002,145.005-4.004c0-1.992-67.002-146.992-150.005-320.996
		c-140-297.002-150-322.002-150-375.996v-59.004h279.009c311.992,0,281.992-7.002,295.996,72.998l5.996,37.002h-235.996
		c-129.004,0-235.005,2.002-235.005,4.004c0,1.992,68.003,146.992,151.001,322.998c128.008,267.002,153.008,327.002,157.002,375.996
		l4.004,57.002h-206.006h-206.001V68.557L2743.442,68.557z"/>
	<path fill="#FFFFFF" d="M3217.451,106.555c2.998-10,42.998-177.002,90-370.996l83.994-354.004l-58.994-255.996
		c-32.002-142.002-59.004-262.998-59.004-269.004c0-8.994,15.996-12.998,45-12.998c37.998,0,45,2.998,50,22.998
		c40.996,172.998,297.002,1227.002,300.996,1240c5,15-1.992,17.002-45,17.002c-58.994,0-45.996,30.996-115.996-280
		c-54.004-239.004-54.004-240-62.998-240c-4.004,0-34.004,117.002-67.002,260l-60,260h-52.998
		C3219.443,123.557,3212.451,121.555,3217.451,106.555z"/>
	<path fill="#FFFFFF" d="M2164.443,8.557l-51.001-54.004l2.002-347.998l2.998-347.998l57.998-2.998l57.002-2.998v405.996
		c0,222.998-3.999,405-8.999,405C2220.444,63.557,2193.442,38.557,2164.443,8.557z"/>
</g>
</svg>
