<?xml version="1.0" encoding="utf-8"?>
<!-- Generator: Adobe Illustrator 25.0.0, SVG Export Plug-In . SVG Version: 6.00 Build 0)  -->
<svg version="1.1" id="Layer_1" xmlns="http://www.w3.org/2000/svg" xmlns:xlink="http://www.w3.org/1999/xlink" x="0px" y="0px"
	 viewBox="0 0 960 92.5" style="enable-background:new 0 0 960 92.5;" xml:space="preserve">
<path d="M929.9,38.1c9.3,0,11-4,11-11.5s-1.1-11.5-11-11.5h-12.2v23.1H929.9z M956.5,60.7v19.1c0,4.6,1.1,8.6,3.5,11h-17.9
	c-1.8-2.3-2.9-6.4-2.9-11V60.7c0-6.9-2.9-9.3-9.3-9.3h-12.2v39.4h-17.3v-89h31.8c23.1,0,25.9,12.7,25.9,24.8
	c0,9.8-5.1,16.8-17.9,19.1C951.4,46.3,956.5,52,956.5,60.7z M884.9,1.8V15h-34.7v22.6h31.2v12.7h-31.2v27.2h34.7v13.3h-52v-89
	L884.9,1.8L884.9,1.8z M821.9,1.8V15h-21.9v75.7h-17.3V15h-21.9V1.8L821.9,1.8L821.9,1.8z M751.9,22.6v5.1h-17.3v-4.6
	c0-7.5-1.1-10.4-9.8-10.4c-8.1,0-9.8,3.5-9.8,9.3c0,5.1,1.1,7.5,5.8,10.4l16.8,11c9.3,5.8,14.4,9.3,14.4,25.4
	c0,15.5-10.4,23.1-27.2,23.1c-20.2,0-28.3-6.9-28.3-23.1v-7.5h17.3v6.4c0,9.3,2.9,11.5,11,11.5s9.8-3.5,9.8-9.8
	c0-6.4-1.1-8.6-6.9-12.7l-16.8-11c-10.4-7-13.9-10.5-13.9-23.2c0-11,6.4-21.9,27.2-21.9C745.6,0,751.9,9.3,751.9,22.6 M680.8,1.8
	v88.4h-21.4l-23.1-67.6v67.6H619V1.8h21.4l23.1,67.1V1.8H680.8z M584.3,24.8c0-9.3-3.5-12.2-12.2-12.2c-9.3,0-12.2,2.9-12.2,12.2
	v42.7c0,9.3,3.5,11.5,12.2,11.5c9.3,0,12.2-2.9,12.2-11.5V24.8z M601.7,29v34.1c0,21.4-10.4,29-29.5,29s-29.5-6.9-29.5-29V29
	c-0.1-21.4,10.3-29,29.3-29S601.7,7.5,601.7,29z M526,1.8v88.4h-17.3V22.6l-15,68.2h-13.9l-14.4-68.8v68.8H448v-89h24.3l14.4,67.6
	l14.4-67.6L526,1.8L526,1.8z M404,1.8V15h-34.7v22.6h31.2v12.7h-31.2v27.2H404v13.3h-52v-89L404,1.8L404,1.8z M306.9,77.5H341v13.3
	h-51.4v-89h17.3V77.5z M278.5,1.8V15h-21.9v75.7h-17.3V15h-21.9V1.8L278.5,1.8L278.5,1.8z M206.3,1.8v88.4h-21.4l-23.1-67.6v67.6
	h-17.3V1.8H166L189,68.8V1.8H206.3z M128.4,1.8V15H93.6v22.6h31.2v12.7H93.6v27.2h34.7v13.3h-52v-89L128.4,1.8L128.4,1.8z
	 M42.2,30.6v-6.9c0-7.5-3.5-11-12.2-11c-9.3,0-12.7,3.5-12.7,11v44.5c0,7.5,2.9,11,12.2,11c8.6,0,12.7-5.8,12.7-14.4V54.4H27.7V41.6
	h31.8v49.1h-15v-6.9c-2.9,4-8.1,8.6-20.2,8.6C8.6,92.5,0,86.1,0,65.3V27.7C0,7.5,12.2,0,30.1,0c17.3,0,29.5,8.1,29.5,23.7v6.9
	L42.2,30.6L42.2,30.6z"/>
</svg>
