<?xml version="1.0" encoding="utf-8"?>
<!-- Generator: Adobe Illustrator 25.0.0, SVG Export Plug-In . SVG Version: 6.00 Build 0)  -->
<svg version="1.1" id="Layer_1" xmlns="http://www.w3.org/2000/svg" xmlns:xlink="http://www.w3.org/1999/xlink" x="0px" y="0px"
	 viewBox="0 0 240 297.4" style="enable-background:new 0 0 240 297.4;" xml:space="preserve">
<style type="text/css">
	.st0{fill:url(#SVGID_1_);}
	.st1{fill:url(#SVGID_2_);}
</style>
<g>
	
		<linearGradient id="SVGID_1_" gradientUnits="userSpaceOnUse" x1="164.015" y1="51.59" x2="164.015" y2="299.61" gradientTransform="matrix(1 0 0 -1 0 300)">
		<stop  offset="0" style="stop-color:#8270FF"/>
		<stop  offset="0.6071" style="stop-color:#91A3FF"/>
	</linearGradient>
	<path class="st0" d="M234.9,178.1c0,38.9-31.5,70.4-70.4,70.4h-1c-38.8,0-70.3-31.5-70.3-70.4V70.7c0-38.8,31.5-70.3,70.3-70.3h1
		c38.9,0,70.4,31.5,70.4,70.3V178.1z"/>
	
		<linearGradient id="SVGID_2_" gradientUnits="userSpaceOnUse" x1="5.54" y1="96.395" x2="234.88" y2="96.395" gradientTransform="matrix(1 0 0 -1 0 300)">
		<stop  offset="0.3929" style="stop-color:#B6FFF9"/>
		<stop  offset="1" style="stop-color:#6AFFE8"/>
	</linearGradient>
	<path class="st1" d="M234.8,182.7c-1.1,21.8-20.5,42.2-44.3,42.2s-43.2-20.4-44.3-42.2h-0.1c0,0,0.1-1.7,0.1-2.4
		c0-38.9-31.5-70.5-70.3-70.5S5.5,141.5,5.5,180.4c0,0.7,0,2.3,0.1,2.3H5.5c0,62.7,51.3,114.7,114.7,114.7S234.9,245.4,234.8,182.7
		L234.8,182.7L234.8,182.7z"/>
</g>
</svg>
